<!-- icon666.com - MILLIONS OF FREE VECTOR ICONS --><svg id="Filled" viewBox="0 0 512 512" xmlns="http://www.w3.org/2000/svg"><path d="m432 384c0 48-32 56-32 56v16c0 17.673-14.327 32-32 32h-224c-17.673 0-32-14.327-32-32v-16s-32-8-32-56 32-64 32-64l40-24h208l40 24s32 16 32 64z" fill="#e7ecf0"></path><path d="m408 184c0 32-16 64-48 80h-208c-32-16-48-48-48-80s16-64 16-64-8-88 16-96 80 48 80 48c16-8 40-8 40-8s24 0 40 8c0 0 56-56 80-48s16 96 16 96 16 32 16 64z" fill="#e9eef2"></path><path d="m152 264v32l-40 24s-3.62 1.81-8.42 6.04c-18.96-13-47.58-30.04-47.58-70.04 0-48 16-72 16-72s-29.422-23.466-24-56c8-48 62.3-40.98 70.72-40.15-.03 17.72 1.28 32.15 1.28 32.15s-16 32-16 64 16 64 48 80z" fill="#e9eef2"></path><ellipse cx="284" cy="420" fill="#fdb432" rx="73.539" ry="62.225" transform="matrix(.707 -.707 .707 .707 -213.803 323.834)"></ellipse><path d="m360 408c-48 8-96-48-40-80 34.73-19.85 40-64 40-64 12.91-6.46 23.22-15.52 30.92-26.14 9.88 9 27.44 27.58 33.08 50.14 8 32-16 112-64 120z" fill="#e9eef2"></path><path d="m349.55 296c-6 11.61-15.29 23.85-29.55 32-12.38 7.08-19.69 15.33-23.03 23.81-19.73-.47-40.79 8.01-56.97 24.19-4.22 4.22-7.91 8.77-11.05 13.54-76.95-15.01-76.95-93.54-76.95-93.54z" fill="#8d9c47"></path><path d="m360 264s-1.83 15.34-10.45 32h-197.55v-32z" fill="#eb423f"></path><circle cx="256" cy="312" fill="#fdb432" r="16"></circle><path d="m184 88-32-24v40z" fill="#eb423f"></path><path d="m328 88 32-24v40z" fill="#eb423f"></path><circle cx="200" cy="160" fill="#4f5659" r="16"></circle><circle cx="312" cy="160" fill="#4f5659" r="16"></circle><path d="m147.794 110.806c1.285.794 2.743 1.194 4.206 1.194 1.223 0 2.448-.28 3.578-.845l32-16c2.479-1.24 4.141-3.676 4.39-6.437.249-2.762-.949-5.455-3.168-7.119l-32-24c-2.423-1.818-5.666-2.111-8.378-.755-2.71 1.356-4.422 4.126-4.422 7.156v40c0 2.772 1.436 5.348 3.794 6.806zm12.206-30.806 8.845 6.634-8.845 4.422zm-24 96c18.771 0 28.599-9.284 29.657-10.343 3.179-3.179 6.778-5.611 10.419-7.482-.046.603-.076 1.21-.076 1.825 0 13.233 10.767 24 24 24s24-10.767 24-24-10.767-24-24-24c-5.81 0-29.441 2.184-45.59 18.276-.49.448-6.523 5.724-18.41 5.724-4.418 0-8 3.582-8 8s3.582 8 8 8zm72-16c0 4.411-3.589 8-8 8s-8-3.589-8-8c0-4.407 3.582-7.993 7.988-7.999h.018c4.408.003 7.994 3.59 7.994 7.999zm-16.41 50.53c-1.118 3.352-4.239 5.472-7.589 5.472-.839 0-1.691-.133-2.531-.412l-24-8c-4.191-1.397-6.456-5.928-5.06-10.12 1.398-4.19 5.927-6.452 10.12-5.06l24 8c4.192 1.398 6.456 5.928 5.06 10.12zm0 10.94c1.396 4.192-.868 8.723-5.06 10.12l-24 8c-.84.279-1.693.412-2.531.412-3.35 0-6.471-2.12-7.589-5.472-1.396-4.192.868-8.723 5.06-10.12l24-8c4.196-1.397 8.722.869 10.12 5.06zm176.41 274.53c22.056 0 40-17.944 40-40v-10.559c10.769-5.167 32-20.542 32-61.441 0-17.592-3.965-33.154-11.778-46.327 5.266-19.106 6.894-38.193 3.539-51.613-5.273-21.092-19.79-38.712-30.505-49.393 9.472-15.295 14.744-33.428 14.744-52.667 0-29.117-12.203-57.626-15.85-65.494.482-6.237 1.681-24.569.842-43.854-1.527-35.136-8.665-53.643-22.462-58.242-12.805-4.265-31.246 3.007-56.39 22.235-12.008 9.182-22.441 18.737-27.859 23.882-16.841-6.445-37.327-6.527-38.281-6.527s-21.44.082-38.281 6.527c-5.418-5.145-15.852-14.7-27.859-23.882-25.145-19.229-43.586-26.503-56.39-22.235-13.797 4.599-20.935 23.106-22.462 58.242-.067 1.53-.119 3.053-.161 4.566-39.751-1.841-65.358 15.189-70.738 47.467-4.696 28.182 12.837 49.891 21.877 58.968-5.053 10.351-13.986 33.818-13.986 70.347 0 38.702 24.429 58.309 43.168 71.257-9.418 11.02-19.168 29.091-19.168 56.743 0 40.899 21.231 56.274 32 61.441v10.559c0 22.056 17.944 40 40 40zm48.239-206.06c4.451 17.808-2.589 54.883-20.166 81.691-7.47 11.394-20.021 25.582-37.389 28.477-2.355.393-4.812.586-7.332.586-18.64-.002-40.521-10.558-47.034-28.849-4.899-13.755 2.08-26.859 19.651-36.9 31.594-18.057 40.93-53.462 43.28-65.741 9.281-5.168 17.462-11.799 24.345-19.557 9.121 9.385 20.515 23.774 24.645 40.293zm-147.127 190.06c-11.924-.745-23.029-5.23-31.454-13.657-21.143-21.143-17.554-59.132 8-84.686 11.725-11.726 26.341-19.199 41.234-21.271-.422 5.505.334 11.156 2.354 16.828 4.355 12.229 14.442 23.438 27.676 30.755 8.381 4.634 17.521 7.483 26.758 8.438-1.961 15.141-9.487 30.088-21.336 41.936-13.346 13.347-30.085 20.689-46.044 21.657zm75.385-192h-184.497v-16h190.171c-1.159 4.383-2.956 10.001-5.674 16zm-80.497 24c0 4.411-3.589 8-8 8s-8-3.589-8-8 3.589-8 8-8 8 3.589 8 8zm-30.624-8c-.888 2.504-1.376 5.195-1.376 8 0 13.233 10.767 24 24 24s24-10.767 24-24c0-2.805-.488-5.496-1.376-8h56.468c-4.888 6.473-11.122 12.517-19.06 17.054-11.109 6.348-19.222 14.174-24.053 22.823-20.818.944-41.572 10.403-57.635 26.466-3.232 3.232-6.182 6.664-8.867 10.241-26.387-6.455-45.323-21.976-56.325-46.201-5.356-11.792-7.578-23.128-8.499-30.383zm-105.409-184.723c-.02-.217-1.946-21.862-.968-44.071 1.727-39.232 10.532-43.284 11.531-43.616 2.565-.859 13.153-1.97 41.49 19.674 16.402 12.526 30.187 26.257 30.323 26.395 2.437 2.433 6.155 3.036 9.234 1.497 14.078-7.04 36.207-7.156 36.417-7.156.222 0 22.351.116 36.428 7.155 3.079 1.54 6.799.937 9.234-1.497.137-.138 13.921-13.868 30.323-26.395 28.335-21.643 38.923-20.534 41.49-19.674.999.332 9.805 4.384 11.531 43.616.979 22.209-.948 43.854-.968 44.071-.135 1.48.146 2.971.812 4.301.152.304 15.156 30.655 15.156 60.423 0 30.854-16.035 58.262-41.963 72h-204.074c-25.928-13.738-41.963-41.146-41.963-72 0-29.653 15.007-60.123 15.155-60.422.665-1.33.947-2.82.812-4.301zm-63.967 136.723c0-44.572 14.531-67.371 14.656-67.562 2.295-3.442 1.569-8.081-1.651-10.679-.257-.207-25.676-21.066-21.113-48.443 2.772-16.639 12-26.991 28.21-31.651 9.741-2.8 19.902-2.847 26.674-2.463.186 10.698.771 19.388 1.074 23.305-3.647 7.867-15.85 36.376-15.85 65.493 0 35.844 18.271 67.861 48 84.777v22.693l-35.915 21.55c-.741.395-2.509 1.393-4.88 3.09-17.88-12.154-39.205-27.565-39.205-60.11zm80 224c-13.233 0-24-10.767-24-24v-8h40c4.418 0 8-3.582 8-8s-3.582-8-8-8h-46.785c-4.453-1.574-25.215-10.903-25.215-48 0-42.074 26.5-56.285 27.578-56.845.183-.092.362-.19.538-.295l29.126-17.476c1.272 8.204 3.848 19.337 9.073 31.022 8.719 19.498 26.524 43.88 62.377 54.373-4.683 9.405-7.629 19.448-8.575 29.653-1.914 20.654 4.559 39.556 18.226 53.224.808.808 1.636 1.586 2.48 2.343h-84.823zm224 0h-46.58c4.306-3.058 8.406-6.512 12.237-10.343 6.52-6.52 11.951-13.854 16.18-21.657h42.163v8c0 13.233-10.767 24-24 24zm30.801-48h-42.222c1.611-5.224 2.704-10.546 3.235-15.891.501-.071 1.003-.135 1.501-.218 18.268-3.045 34.913-15.316 48.139-35.487 4.15-6.33 7.868-13.401 11.075-20.827 2.306 7.43 3.471 15.592 3.471 24.423 0 37.241-20.92 46.497-25.199 48zm-74.379-336.845 32 16c1.13.564 2.354.845 3.578.845 1.462 0 2.921-.4 4.206-1.194 2.358-1.458 3.794-4.033 3.794-6.806v-40c0-3.03-1.712-5.8-4.422-7.155-2.712-1.356-5.955-1.063-8.378.755l-32 24c-2.219 1.664-3.417 4.357-3.168 7.119.249 2.76 1.91 5.196 4.39 6.436zm27.578-15.155v11.056l-8.845-4.422zm-40 104c13.233 0 24-10.767 24-24 0-.615-.031-1.222-.076-1.825 3.642 1.872 7.241 4.304 10.419 7.482 1.058 1.059 10.886 10.343 29.657 10.343 4.418 0 8-3.582 8-8s-3.582-8-8-8c-11.887 0-17.92-5.276-18.41-5.724-16.149-16.092-39.279-18.276-45.59-18.276-13.233 0-24 10.767-24 24s10.767 24 24 24zm-.006-32h.019c4.405.007 7.987 3.593 7.987 7.999 0 4.411-3.589 8-8 8s-8-3.589-8-8c0-4.408 3.585-7.995 7.994-7.999zm47.596 45.47c1.396 4.192-.868 8.723-5.06 10.12l-24 8c-.84.279-1.693.412-2.531.412-3.35 0-6.471-2.12-7.589-5.472-1.396-4.192.868-8.723 5.06-10.12l24-8c4.196-1.395 8.721.869 10.12 5.06zm0 37.06c-1.118 3.352-4.239 5.472-7.589 5.472-.839 0-1.691-.133-2.531-.412l-24-8c-4.191-1.397-6.456-5.928-5.06-10.12 1.398-4.191 5.927-6.453 10.12-5.06l24 8c4.192 1.398 6.456 5.928 5.06 10.12zm-125.247-12.873c-3.124-3.125-3.124-8.189 0-11.314l16-16c3.125-3.123 8.189-3.123 11.314 0l16 16c3.124 3.125 3.124 8.189 0 11.314-1.562 1.562-3.609 2.343-5.657 2.343s-4.095-.781-5.657-2.343l-10.343-10.344-10.343 10.344c-3.125 3.123-8.189 3.123-11.314 0zm75.314 204.686c3.124 3.125 3.124 8.189 0 11.314-1.562 1.562-3.609 2.343-5.657 2.343s-4.095-.781-5.657-2.343l-32-32c-3.124-3.125-3.124-8.189 0-11.314 3.125-3.123 8.189-3.123 11.314 0zm-24 24c3.124 3.125 3.124 8.189 0 11.314-1.562 1.562-3.609 2.343-5.657 2.343s-4.095-.781-5.657-2.343l-32-32c-3.124-3.125-3.124-8.189 0-11.314 3.125-3.123 8.189-3.123 11.314 0z"></path></svg>